      Format : AVI
      Format/Info : Audio Video Interleave
      File size : 485 MiB
      Duration : 59mn 9s
      Overall bit rate : 1 145 Kbps
      Writing application : VirtualDubMod 1.5.10.2 (build 2540/release)
      Writing library : VirtualDubMod build 2540/release

   Video
      Format : MPEG-4 Visual
      Format profile : AdvancedSimple@L5
      Format settings, BVOP : Yes
      Format settings, QPel : No
      Format settings, GMC : No warppoints
      Format settings, Matrix : Default (H.263)
      Muxing mode : Packed bitstream
      Codec ID : XVID
      Codec ID/Hint : XviD
      Duration : 59mn 9s
      Bit rate : 1 005 Kbps
      Width : 608 pixels
      Height : 336 pixels
      Display aspect ratio : 16:9
      Frame rate : 25.000 fps
      Resolution : 24 bits
      Colorimetry : 4:2:0
      Scan type : Progressive
      Bits/(Pixel*Frame) : 0.197
      Stream size : 425 MiB (88%)
      Writing library : XviD 1.2.1 (UTC 2008-12-04)

   Audio
      Format : MPEG Audio
      Format version : Version 1
      Format profile : Layer 3
      Codec ID : 55
      Codec ID/Hint : MP3
      Duration : 59mn 9s
      Bit rate mode : Variable
      Bit rate : 128 Kbps
      Channel(s) : 2 channels
      Sampling rate : 48.0 KHz
      Resolution : 16 bits
      Stream size : 53.9 MiB (11%)
      Alignment : Aligned on interleaves
      Interleave, duration : 24 ms (0.60 video frame)
      Interleave, preload duration : 515 ms
      Writing library : LAME3.90.
      Encoding settings : -m j -V 4 -q 2 -lowpass 17.6 --abr 128
********************************************************************
ScreenShots
1. http://img94.imageshack.us/img94/3431/96872993.jpg
2. http://img94.imageshack.us/img94/125/54429993.jpg
*********************************************************************
Genre: Reality-TV
********************************************************************
Plot: A nationwide search to find Britain's most talented and original dancers who can demonstrate they have the spirit, showmanship and technical ability of Michael Jackson.
********************************************************************
Download, Comment, Seed and then Enjoy